<?xml version="1.0" standalone="no"?>
<!DOCTYPE svg PUBLIC "-//W3C//DTD SVG 20010904//EN"
 "http://www.w3.org/TR/2001/REC-SVG-20010904/DTD/svg10.dtd">
<svg version="1.0" xmlns="http://www.w3.org/2000/svg"
 width="1200.000000pt" height="1200.000000pt" viewBox="0 0 1200.000000 1200.000000"
 preserveAspectRatio="xMidYMid meet">
<metadata>
Created by potrace 1.14, written by Peter Selinger 2001-2017
</metadata>
<g transform="translate(0.000000,1200.000000) scale(0.100000,-0.100000)"
fill="#000000" stroke="none">
<path d="M7300 11638 c-201 -26 -293 -41 -365 -59 -110 -28 -244 -68 -280 -85
-16 -8 -59 -21 -95 -30 -35 -8 -76 -24 -90 -33 -14 -10 -56 -28 -95 -40 -38
-12 -90 -33 -115 -46 -25 -14 -74 -38 -110 -55 -36 -17 -74 -36 -85 -42 -29
-17 -66 -35 -95 -47 -37 -15 -146 -77 -194 -110 -22 -15 -61 -41 -86 -57 -25
-16 -47 -31 -50 -34 -3 -4 -23 -17 -45 -30 -22 -13 -59 -39 -83 -58 -24 -19
-67 -51 -95 -70 -29 -19 -58 -44 -65 -54 -7 -10 -20 -18 -28 -18 -16 0 -84
-60 -217 -192 -49 -49 -93 -88 -98 -88 -5 0 -16 -12 -25 -26 -10 -14 -50 -60
-91 -102 -40 -42 -73 -82 -73 -89 0 -7 -8 -17 -18 -22 -10 -5 -31 -29 -47 -53
-51 -76 -76 -98 -112 -98 -36 0 -178 -44 -200 -62 -7 -6 -16 -8 -19 -5 -3 3
-39 -10 -80 -28 -41 -19 -92 -37 -112 -41 -20 -4 -53 -19 -72 -33 -41 -31 -69
-49 -90 -58 -16 -6 -144 -106 -219 -170 -24 -21 -58 -49 -75 -63 -46 -38 -246
-239 -246 -248 0 -4 -25 -35 -55 -67 -30 -33 -55 -62 -55 -65 0 -3 -16 -21
-35 -40 -19 -19 -35 -39 -35 -44 0 -5 -9 -18 -20 -30 -45 -47 -88 -103 -105
-136 -10 -19 -29 -49 -41 -66 -13 -17 -24 -34 -24 -37 0 -4 -14 -30 -32 -58
-29 -48 -46 -105 -54 -189 -2 -19 -7 -62 -11 -95 -5 -33 -8 -220 -7 -415 l2
-355 -36 -54 c-21 -30 -55 -87 -77 -126 -22 -40 -45 -79 -51 -86 -22 -26 -54
-89 -54 -105 0 -9 -11 -37 -24 -63 -13 -25 -36 -80 -52 -121 -15 -41 -40 -98
-55 -125 -14 -28 -30 -66 -34 -85 -4 -19 -18 -48 -31 -65 -12 -16 -26 -43 -30
-60 -4 -16 -13 -39 -20 -50 -6 -11 -15 -45 -19 -75 -4 -30 -11 -59 -15 -65
-10 -13 -21 -103 -22 -184 0 -50 4 -67 19 -83 20 -20 20 -20 64 2 55 29 100
60 117 82 7 9 29 34 48 55 34 36 53 66 89 141 8 17 17 32 19 32 2 0 9 -28 15
-63 19 -109 80 -211 184 -307 l60 -56 -16 -29 c-8 -17 -18 -51 -22 -77 -6 -42
-10 -47 -48 -63 -23 -9 -56 -23 -73 -30 -32 -14 -134 -103 -134 -118 0 -5 -9
-20 -20 -34 -24 -31 -26 -63 -4 -63 8 0 52 37 97 83 93 93 148 122 172 90 8
-10 15 -27 15 -39 0 -11 7 -29 15 -40 8 -10 15 -27 15 -37 0 -11 8 -32 18 -49
17 -30 17 -30 -13 -56 -68 -60 -108 -136 -119 -224 -7 -57 0 -78 25 -78 13 0
21 12 29 40 6 22 9 44 6 49 -13 20 90 181 115 181 4 0 10 -9 14 -19 3 -11 34
-48 68 -84 51 -54 83 -77 179 -125 64 -33 119 -58 121 -56 2 3 27 -7 55 -21
27 -14 58 -25 67 -25 9 0 33 -7 53 -16 21 -9 52 -22 70 -30 18 -8 39 -14 46
-14 8 0 19 -6 25 -14 7 -8 30 -17 52 -21 21 -4 41 -11 45 -16 3 -5 14 -9 24
-9 41 0 275 -104 308 -137 7 -7 20 -13 29 -13 8 0 30 -7 48 -16 33 -15 33 -15
18 -46 -13 -24 -14 -50 -9 -121 6 -87 5 -92 -20 -129 -15 -21 -30 -38 -33 -38
-4 0 -16 -9 -28 -19 -68 -64 -237 -114 -373 -111 -55 1 -69 -2 -84 -19 -26
-29 -60 -26 -118 9 -26 17 -54 30 -62 30 -7 0 -30 11 -50 25 -20 14 -40 25
-45 25 -4 0 -16 10 -27 21 -10 12 -35 32 -54 44 -19 13 -46 34 -60 47 -14 12
-39 31 -56 40 -17 9 -47 33 -68 52 -32 29 -36 37 -27 54 16 29 14 117 -4 158
-11 27 -20 35 -37 34 -51 -5 -56 -1 -74 58 -24 77 -49 117 -114 179 -65 63
-238 143 -308 143 -20 0 -41 4 -47 8 -13 10 -52 100 -80 190 -22 68 -23 74 -7
87 9 8 51 45 92 82 166 150 181 171 141 207 -18 16 -21 16 -59 -3 -46 -23
-235 -187 -240 -208 -2 -7 -7 -13 -12 -13 -5 0 -23 -13 -41 -29 l-32 -30 16
-43 c9 -24 20 -59 25 -78 6 -19 22 -66 36 -105 14 -38 26 -73 26 -76 0 -4 -18
-9 -41 -13 -96 -15 -233 -122 -269 -210 -11 -28 -27 -62 -34 -76 -7 -14 -14
-52 -14 -85 -1 -46 -6 -63 -20 -75 -40 -32 -53 -65 -49 -127 5 -66 16 -93 50
-120 17 -13 27 -36 35 -83 7 -36 19 -96 28 -135 9 -38 17 -86 19 -105 2 -19
10 -60 18 -90 8 -30 18 -73 21 -95 4 -22 18 -78 32 -125 13 -47 30 -103 36
-125 6 -22 15 -44 20 -49 4 -6 8 -16 8 -24 0 -28 54 -137 83 -168 34 -37 101
-54 238 -61 90 -4 275 19 292 36 6 6 19 11 28 11 9 0 30 7 45 15 39 20 58 19
102 -8 88 -55 265 -123 436 -169 61 -16 115 -33 121 -38 6 -5 30 -12 54 -16
31 -5 45 -13 51 -28 17 -46 53 -55 225 -60 61 -2 129 -4 152 -5 l42 -1 -1 -42
c-2 -52 47 -309 66 -346 7 -15 21 -52 31 -82 10 -30 22 -61 28 -68 10 -12 1
-22 -79 -87 -20 -16 -84 -144 -84 -168 0 -11 -6 -28 -13 -36 -26 -30 -41 -161
-41 -351 1 -187 11 -274 44 -385 10 -33 25 -85 34 -115 33 -117 48 -160 57
-165 24 -16 6 -33 -38 -38 -57 -6 -158 -33 -193 -51 -14 -7 -54 -23 -90 -36
-36 -13 -72 -29 -81 -37 -8 -7 -20 -13 -26 -13 -6 0 -35 -12 -65 -26 -29 -15
-68 -34 -87 -43 -18 -9 -36 -23 -39 -31 -3 -8 -18 -27 -34 -42 -15 -15 -28
-32 -28 -39 0 -6 -8 -23 -19 -37 -21 -31 -61 -143 -61 -171 0 -11 -5 -23 -11
-27 -6 -3 -9 -19 -5 -35 3 -15 1 -31 -3 -34 -12 -7 -13 -142 -1 -180 5 -16 14
-49 20 -72 16 -64 153 -180 239 -204 25 -7 55 -18 66 -25 11 -7 56 -22 100
-35 76 -22 95 -23 365 -22 267 2 327 4 390 16 14 2 48 8 75 12 70 10 208 45
221 56 6 5 13 7 16 4 3 -3 20 1 39 9 19 7 40 11 47 9 7 -3 24 2 37 11 13 9 45
23 71 32 26 9 59 24 73 34 14 11 51 27 81 36 30 9 73 30 94 46 22 15 45 28 50
28 30 0 140 136 175 215 52 115 59 145 59 232 -1 82 -15 144 -37 157 -4 3 -11
18 -14 34 -3 16 -20 43 -36 61 -41 44 -39 71 9 138 22 31 40 60 40 65 0 5 11
26 25 48 14 22 25 47 25 55 0 17 28 77 40 85 4 3 11 23 17 45 8 36 12 40 39
37 16 -1 52 -4 79 -7 85 -7 175 -27 191 -42 7 -8 14 -25 14 -37 0 -21 35 -105
49 -116 3 -3 15 -23 26 -44 20 -40 166 -196 183 -196 5 0 35 -25 67 -55 31
-30 62 -55 68 -55 5 0 26 -12 46 -27 65 -50 130 -93 141 -93 5 0 10 -4 10 -10
0 -5 6 -10 13 -10 12 0 142 -52 188 -76 14 -7 64 -20 110 -28 46 -8 116 -22
154 -31 39 -10 82 -17 98 -16 31 0 32 -4 12 -84 -16 -63 -24 -108 -29 -165 -2
-19 -7 -69 -11 -110 -23 -203 4 -308 101 -383 88 -68 189 -99 367 -112 31 -2
61 -6 65 -9 18 -11 199 15 233 34 30 17 57 25 90 29 3 1 16 10 29 21 13 11 28
20 34 20 6 0 19 8 28 18 18 19 25 25 83 67 22 16 81 71 131 122 51 51 96 93
102 93 5 0 27 21 48 46 22 25 55 62 75 82 20 20 43 51 52 68 9 17 29 45 45 62
16 17 35 45 42 61 7 17 21 40 31 52 10 12 17 25 14 28 -2 4 7 20 21 36 13 15
24 32 24 37 0 5 18 47 40 94 22 47 40 90 40 96 0 7 4 25 9 42 47 154 59 451
21 501 -4 6 -11 26 -15 45 -12 56 -96 170 -126 170 -5 0 -9 6 -9 12 0 16 -80
88 -97 88 -15 0 -16 5 -4 28 20 38 41 100 51 147 6 28 15 61 20 75 5 14 11 45
14 70 3 25 5 46 5 46 1 1 36 1 79 1 110 0 144 20 263 149 10 12 19 27 19 34 0
7 10 35 23 61 19 42 27 48 62 54 52 10 86 27 126 67 31 32 89 143 89 172 0 7
7 27 15 42 27 50 -2 174 -49 213 -30 25 -29 66 4 113 43 62 48 104 19 191 -19
59 -33 81 -78 124 -29 29 -61 53 -71 53 -9 0 -31 7 -49 16 -20 10 -56 16 -99
15 -57 0 -70 3 -92 23 -14 13 -54 39 -89 58 -56 28 -75 33 -135 33 -82 0 -172
-29 -251 -81 l-50 -33 -30 28 c-36 32 -107 81 -120 81 -5 0 -18 9 -29 19 -35
33 -218 90 -298 95 -20 1 -28 6 -28 19 0 26 -18 57 -34 57 -7 0 -22 10 -33 22
-11 13 -82 81 -157 152 -75 71 -136 135 -136 142 0 7 -9 18 -19 24 -11 5 -23
20 -27 32 -4 13 -16 32 -28 44 -12 11 -30 31 -41 45 -11 13 -30 36 -43 51
l-23 27 38 17 c21 8 61 16 88 17 28 1 56 6 63 10 6 5 17 5 22 2 14 -9 159 -20
233 -18 65 1 91 17 100 62 8 36 23 40 162 35 205 -7 284 -21 415 -75 77 -32
163 -59 187 -59 12 0 24 -4 28 -10 14 -23 72 -4 112 38 43 44 58 93 47 150 -5
27 -2 32 25 46 17 9 31 23 31 32 0 8 7 26 16 40 12 18 15 37 11 68 -6 42 -5
45 22 54 34 12 76 82 79 132 1 29 -10 51 -68 132 -38 53 -95 120 -126 150 -81
76 -224 172 -312 209 -41 17 -83 35 -91 39 -25 13 -155 50 -174 50 -10 0 -28
5 -40 11 -18 10 -115 26 -282 46 -27 3 -62 15 -76 26 -25 18 -45 19 -275 20
-137 1 -269 -2 -294 -6 -56 -9 -272 -19 -246 -11 10 3 40 19 65 34 25 15 57
31 71 35 53 16 189 134 268 232 26 32 92 132 92 139 0 6 35 80 49 104 5 8 14
29 21 45 7 17 16 38 21 47 5 10 9 24 9 32 0 7 7 19 15 26 9 7 13 20 10 28 -3
8 -1 20 5 27 21 26 35 139 39 323 l1 24 31 -27 c21 -17 41 -25 58 -23 25 3 26
6 25 58 -3 82 -25 174 -58 235 -9 17 -16 37 -16 46 0 8 -11 26 -25 39 -14 13
-25 29 -25 36 0 7 -13 28 -28 46 -16 18 -39 51 -52 73 -13 22 -28 43 -33 46
-22 15 6 25 57 21 53 -4 56 -3 66 24 13 33 5 74 -13 74 -14 0 -45 22 -81 55
-21 20 -48 38 -76 51 -8 4 -29 18 -47 31 -33 24 -39 42 -47 138 -4 47 -7 70
-22 157 -3 21 -10 40 -15 44 -5 3 -9 22 -9 42 -1 20 -7 55 -15 77 -8 22 -15
49 -15 60 0 11 -7 33 -15 49 -8 16 -14 34 -13 40 2 14 -10 64 -22 91 -10 21
-42 199 -42 225 0 8 -3 24 -8 35 -11 26 -36 102 -61 185 -18 58 -72 172 -135
285 l-22 40 72 18 c39 10 100 25 136 33 36 8 74 19 85 23 26 11 82 26 170 46
39 9 80 21 92 27 13 6 26 9 29 6 3 -3 30 3 59 13 30 10 66 19 80 19 14 0 33 4
43 9 9 5 60 19 112 31 52 11 104 25 115 30 11 5 74 30 140 56 66 25 127 52
135 59 8 7 33 20 55 30 78 33 147 70 171 93 14 12 29 22 33 22 5 0 20 9 35 21
15 12 44 31 65 43 21 11 66 40 100 64 34 23 65 42 69 42 4 0 31 18 60 40 29
22 56 40 61 40 4 0 28 17 52 38 24 21 62 50 83 65 54 36 152 132 213 208 28
35 62 74 75 86 12 11 35 36 50 55 15 18 42 51 60 73 68 82 128 185 128 217 0
7 19 56 42 108 38 87 42 104 45 195 6 146 -12 169 -157 195 -25 5 -65 14 -90
20 -25 7 -56 13 -70 15 -42 4 -123 16 -175 25 -129 22 -471 31 -620 16 -33 -3
-79 -8 -103 -10 -56 -6 -105 -16 -117 -26 -5 -4 -34 -10 -64 -14 -30 -4 -67
-14 -82 -22 -15 -7 -39 -14 -52 -14 -13 0 -50 -8 -83 -19 -32 -10 -81 -26
-109 -34 -43 -14 -179 -62 -281 -101 -18 -6 -38 -17 -45 -23 -8 -6 -25 -14
-39 -18 -14 -4 -34 -14 -45 -21 -11 -8 -25 -14 -33 -14 -18 0 -139 -58 -147
-70 -3 -5 -10 -10 -15 -10 -5 0 1 33 13 73 17 58 21 99 22 212 0 176 -22 259
-85 320 -24 23 -37 26 -106 29 -43 1 -108 -1 -144 -6z m213 -101 c18 -23 19
-27 34 -112 12 -72 -1 -289 -22 -360 -27 -90 -55 -128 -113 -153 -28 -12 -64
-33 -80 -47 -16 -14 -35 -25 -42 -25 -7 0 -25 -10 -40 -22 -59 -48 -74 -58
-87 -58 -7 0 -25 -12 -40 -26 -31 -28 -119 -84 -170 -109 -18 -8 -39 -24 -45
-35 -7 -11 -18 -20 -24 -20 -6 0 -19 -9 -29 -20 -10 -11 -22 -20 -28 -20 -5 0
-31 -18 -57 -40 -26 -22 -51 -40 -55 -40 -3 0 -12 -6 -19 -12 -8 -7 -33 -29
-56 -48 -24 -19 -59 -52 -79 -72 -20 -21 -40 -38 -43 -38 -4 0 -49 -41 -100
-91 -76 -74 -96 -89 -115 -85 -13 3 -35 9 -50 12 -16 3 -37 9 -48 14 -11 5
-31 11 -45 14 -14 3 -50 12 -80 22 -71 21 -111 24 -365 28 -153 2 -250 -2
-360 -15 -82 -10 -195 -20 -250 -23 -118 -7 -205 -15 -259 -23 l-40 -5 42 53
c87 112 392 429 412 429 4 0 10 7 14 15 3 8 19 23 35 33 28 17 90 67 155 125
17 15 34 27 39 27 5 0 27 15 50 33 22 17 77 55 121 84 45 28 92 61 105 72 13
12 30 21 36 21 7 0 18 7 25 15 7 8 54 36 104 61 306 155 408 204 425 204 10 0
24 7 31 15 7 8 22 15 34 15 12 0 30 6 41 14 11 8 40 20 65 27 25 7 50 16 56
21 6 5 49 18 95 29 46 12 89 25 94 30 6 4 29 12 50 18 22 5 67 17 100 26 33
10 71 19 85 22 14 2 52 8 85 13 33 5 98 15 144 22 46 7 120 12 165 10 70 -2
83 -5 99 -25z m1642 -201 c153 -8 239 -18 257 -27 10 -6 23 -7 28 -4 6 4 25 2
43 -4 17 -6 58 -13 89 -16 114 -11 238 -43 263 -69 21 -21 27 -71 14 -122 -7
-27 -15 -53 -20 -59 -4 -5 -17 -39 -28 -75 -12 -36 -26 -74 -31 -85 -5 -11
-16 -36 -25 -55 -28 -66 -119 -190 -195 -269 -30 -31 -71 -77 -90 -101 -42
-53 -99 -111 -160 -162 -25 -21 -63 -53 -85 -71 -22 -19 -49 -37 -61 -41 -11
-3 -31 -16 -44 -28 -23 -21 -176 -118 -187 -118 -2 0 -23 -16 -46 -35 -22 -19
-44 -35 -49 -35 -5 0 -32 -17 -61 -39 -29 -21 -83 -54 -122 -73 -38 -20 -86
-44 -105 -55 -19 -10 -60 -29 -90 -42 -70 -28 -85 -34 -141 -60 -26 -11 -60
-23 -75 -27 -16 -4 -33 -10 -39 -14 -5 -5 -35 -13 -65 -19 -137 -27 -200 -43
-365 -91 -65 -19 -149 -39 -185 -44 -8 -1 -53 -14 -100 -28 -47 -15 -103 -30
-125 -34 -22 -3 -62 -13 -88 -21 -26 -9 -49 -14 -51 -12 -18 22 -75 114 -72
117 2 2 37 12 77 22 41 11 106 28 144 39 39 11 106 29 150 41 44 12 107 32
140 45 33 13 78 29 100 36 22 6 65 25 96 41 31 15 61 28 67 28 6 0 36 11 66
25 30 14 58 25 62 25 4 0 40 15 78 33 39 19 98 44 131 57 33 12 80 33 104 46
24 13 48 24 54 24 28 0 314 156 347 190 3 3 25 19 50 35 25 17 61 45 80 62 19
18 39 33 44 33 8 0 90 68 166 136 48 43 275 270 300 300 65 76 130 165 130
178 0 7 7 19 15 26 8 7 15 19 15 26 0 8 12 37 28 64 26 50 27 51 8 65 -11 8
-36 17 -55 20 -20 4 -44 10 -53 16 -42 22 -508 3 -524 -22 -3 -5 -19 -9 -35
-9 -53 0 -284 -80 -392 -135 -16 -8 -35 -15 -43 -15 -8 0 -17 -7 -20 -15 -4
-8 -14 -15 -24 -15 -10 0 -23 -7 -30 -15 -7 -8 -20 -15 -29 -16 -9 0 -50 -22
-91 -50 -41 -27 -86 -55 -100 -61 -14 -7 -28 -18 -32 -24 -4 -7 -27 -22 -50
-34 -24 -12 -50 -28 -58 -36 -39 -36 -143 -116 -205 -159 -62 -41 -117 -86
-230 -187 -206 -184 -344 -301 -418 -355 -21 -15 -65 -49 -97 -75 -32 -27 -61
-48 -64 -48 -4 0 -31 -18 -60 -39 l-53 -39 -44 35 c-24 19 -54 43 -67 54 -20
17 -66 40 -182 92 -19 9 -55 27 -80 41 -65 35 -116 56 -134 56 -9 0 -16 4 -16
8 0 12 215 211 302 280 78 62 171 129 211 152 20 12 37 25 37 29 0 8 136 98
188 125 17 9 32 20 32 24 0 7 14 15 75 45 17 7 36 21 44 30 7 10 18 17 23 17
6 0 44 23 85 50 41 28 82 50 91 50 10 0 31 8 47 18 68 42 165 92 176 92 7 0
20 6 28 13 14 12 72 38 266 121 28 12 91 35 140 50 50 16 99 32 110 37 11 5
40 13 65 19 25 5 70 16 100 26 30 9 73 20 95 25 22 4 81 17 130 29 50 11 117
23 150 26 119 12 240 19 255 17 8 -1 51 -4 95 -7z m-2505 -3351 c19 -2 76 -13
125 -24 50 -10 131 -25 180 -31 50 -7 97 -17 106 -21 9 -5 45 -11 80 -15 35
-3 91 -14 123 -25 33 -10 67 -19 76 -19 9 0 56 -13 103 -30 48 -16 94 -30 102
-30 8 0 23 -4 33 -9 59 -30 72 -34 84 -24 9 7 22 7 38 1 24 -9 24 -10 5 -20
-11 -6 -23 -16 -27 -22 -12 -18 1 -99 20 -120 11 -12 34 -43 52 -71 18 -27 39
-54 46 -58 8 -4 14 -14 14 -21 0 -7 23 -49 51 -92 45 -69 87 -174 69 -174 -3
0 -15 7 -26 15 -24 18 -58 19 -72 3 -6 -9 -7 -50 -2 -118 7 -101 -2 -253 -19
-295 -4 -11 -21 -60 -37 -110 -30 -93 -79 -197 -120 -252 -13 -17 -24 -35 -24
-38 0 -14 -57 -83 -115 -139 -57 -56 -157 -136 -170 -136 -3 0 -26 -9 -51 -20
-24 -11 -54 -25 -66 -30 -13 -6 -30 -14 -38 -19 -104 -64 -275 -123 -395 -136
-81 -8 -151 -30 -205 -64 -28 -18 -149 -71 -160 -71 -7 0 -25 -12 -41 -27 -31
-30 -38 -70 -14 -79 22 -9 19 -19 -15 -57 -16 -19 -30 -38 -30 -43 0 -16 -74
-84 -91 -84 -10 0 -21 -5 -24 -10 -3 -6 -26 -19 -51 -30 -24 -11 -64 -29 -88
-40 -25 -11 -49 -20 -54 -20 -5 0 -15 -7 -22 -15 -7 -8 -20 -15 -30 -15 -10 0
-23 -6 -29 -13 -6 -8 -30 -20 -53 -27 -24 -7 -57 -19 -73 -26 -17 -7 -53 -18
-80 -24 -28 -6 -81 -22 -120 -35 -38 -13 -85 -26 -102 -30 -18 -4 -35 -11 -38
-16 -4 -5 -21 -9 -40 -9 -19 0 -37 -4 -40 -10 -3 -5 -18 -10 -32 -10 -23 0
-124 -29 -178 -51 -11 -4 -36 -10 -55 -12 -19 -3 -48 -8 -65 -11 -16 -3 -58
-7 -92 -10 -35 -2 -67 -7 -72 -10 -5 -4 -12 -2 -15 3 -3 5 -32 7 -64 5 -43 -4
-73 1 -122 18 -65 23 -65 23 -65 62 0 27 -6 42 -18 50 -10 6 -40 27 -66 47
-27 20 -71 42 -97 49 -27 7 -56 18 -64 25 -25 19 -90 55 -101 55 -6 0 -22 9
-36 20 -14 11 -40 22 -59 26 -18 3 -38 12 -45 20 -6 8 -19 14 -29 14 -9 0 -31
7 -48 16 -17 8 -48 18 -69 21 -21 3 -45 11 -53 18 -8 8 -44 23 -80 35 -36 12
-69 25 -75 30 -5 4 -26 11 -45 15 -19 4 -51 14 -70 22 -19 9 -55 24 -80 35
-150 65 -221 112 -281 188 -45 57 -51 50 65 85 56 17 71 26 71 41 0 28 -41 29
-125 4 -40 -12 -73 -20 -74 -18 -11 15 -56 119 -61 140 -7 26 -6 27 22 19 15
-5 49 -18 76 -30 51 -22 77 -19 77 10 0 18 -93 69 -153 83 -24 6 -26 10 -21
34 11 52 26 92 33 92 4 0 33 -9 64 -20 143 -51 265 -57 373 -20 32 11 59 18
62 15 3 -2 6 -15 8 -27 6 -45 13 -70 25 -84 6 -8 8 -14 5 -14 -17 0 31 -58 75
-93 74 -57 182 -72 265 -37 28 12 32 11 60 -14 16 -15 38 -36 49 -46 11 -10
34 -25 50 -33 17 -8 54 -31 84 -51 29 -20 65 -39 80 -42 14 -4 31 -10 36 -14
26 -19 83 3 128 48 41 42 117 169 117 197 0 5 42 31 93 57 61 32 112 67 153
107 58 56 63 59 83 45 28 -20 222 -28 247 -9 10 6 15 19 11 27 -4 12 -30 17
-114 21 -60 3 -126 12 -148 21 -80 31 -133 62 -159 94 -33 38 -66 43 -66 10 0
-24 64 -89 111 -114 16 -8 29 -18 29 -23 0 -9 -76 -81 -85 -81 -3 0 -15 -9
-27 -20 -12 -11 -28 -20 -35 -20 -8 0 -28 -8 -46 -17 -61 -33 -102 -43 -172
-44 -107 0 -226 36 -290 89 -44 36 -66 38 -75 5 -7 -31 -68 -100 -109 -124
-122 -72 -267 -16 -308 118 -10 32 -18 65 -18 73 -1 15 30 41 70 61 44 22 67
38 111 77 l45 42 42 -33 c66 -51 126 -78 193 -84 51 -5 70 -2 108 16 56 28
102 84 115 142 36 154 -28 214 -219 207 -84 -3 -90 -2 -90 17 1 68 19 76 185
77 98 0 163 -15 180 -42 3 -5 19 -10 36 -10 23 0 29 4 29 23 0 17 -12 28 -57
48 -93 43 -154 51 -253 35 -47 -8 -88 -12 -91 -10 -4 2 -6 25 -5 51 1 46 3 49
46 70 25 12 57 22 72 23 15 0 39 5 54 10 14 6 51 13 80 15 61 5 88 -12 100
-62 11 -53 48 -138 74 -171 45 -58 150 -162 164 -162 7 0 19 -7 27 -16 17 -20
74 -47 174 -80 71 -24 95 -27 215 -28 126 0 141 2 227 31 120 41 246 114 309
177 36 37 108 139 133 190 14 26 32 50 40 53 9 3 30 11 46 18 61 26 81 34 145
54 119 37 176 51 206 51 53 0 106 20 102 38 -8 37 -202 13 -353 -44 -38 -14
-84 -28 -101 -31 l-31 -5 5 101 c5 105 -9 208 -34 248 -13 21 -12 24 23 47 21
14 56 39 78 55 22 17 56 41 75 54 19 14 44 34 54 46 11 11 23 21 28 21 4 0 16
8 27 18 10 9 44 37 76 62 108 85 255 235 255 260 0 13 10 34 22 47 22 23 20
23 128 8z m-1749 -66 c20 -20 20 -22 4 -38 -15 -15 -17 -15 -30 3 -20 27 -35
11 -35 -40 0 -32 4 -44 15 -44 17 0 20 25 5 35 -18 11 0 25 31 25 26 0 29 -3
29 -30 0 -55 -60 -89 -104 -57 -19 14 -32 82 -22 122 11 44 73 58 107 24z
m-1040 1 c25 -14 25 -50 0 -50 -11 0 -23 5 -26 10 -8 12 -25 13 -25 1 0 -5 16
-18 35 -30 27 -16 35 -27 35 -49 0 -15 -5 -33 -12 -40 -17 -17 -74 -15 -92 4
-24 23 -20 44 9 44 14 0 25 -4 25 -10 0 -5 7 -10 17 -10 15 0 14 2 -2 20 -10
11 -26 22 -36 25 -11 4 -22 18 -25 32 -12 46 48 78 97 53z m397 -78 c3 -82 2
-83 -20 -80 -18 2 -24 11 -28 38 l-6 35 -7 -37 c-6 -31 -12 -38 -31 -38 -19 0
-24 8 -33 48 l-10 47 -2 -48 c-1 -44 -3 -48 -23 -45 -20 3 -23 9 -24 56 -2 89
4 102 41 102 31 0 33 -2 42 -47 l9 -48 8 45 c9 51 20 61 56 58 24 -3 25 -6 28
-86z m140 76 c15 -15 16 -48 0 -48 -6 0 -19 7 -29 16 -9 8 -20 11 -23 6 -3 -5
11 -20 32 -33 61 -40 53 -99 -13 -99 -49 0 -65 9 -65 36 0 27 34 34 44 9 7
-18 26 -20 26 -2 -1 6 -15 21 -33 32 -34 22 -46 57 -27 81 15 17 71 19 88 2z
m100 -53 c2 -33 7 -64 13 -69 10 -11 10 -9 13 74 1 49 3 55 24 58 21 3 22 0
22 -70 0 -85 -8 -98 -62 -98 -47 0 -58 18 -58 98 0 63 5 74 30 70 11 -2 16
-19 18 -63z m195 23 l15 -43 1 43 c1 39 3 43 24 40 20 -3 22 -9 25 -79 3 -75
2 -77 -23 -81 -33 -7 -52 12 -62 60 l-8 37 -5 -50 c-4 -42 -8 -50 -25 -50 -18
0 -20 8 -23 69 -4 86 0 96 37 96 26 0 31 -6 44 -42z m-664 -37 c15 -92 15 -93
-11 -89 -19 2 -25 13 -34 58 l-11 55 -7 -57 c-8 -56 -21 -73 -46 -58 -10 6
-10 21 0 76 7 38 15 72 17 77 2 4 21 7 42 7 l38 0 12 -69z m-228 -484 c111
-55 196 -139 252 -252 43 -88 61 -306 26 -313 -15 -3 -59 63 -59 89 0 28 -77
160 -118 202 -73 75 -111 91 -217 92 -65 0 -103 -5 -135 -18 -85 -35 -140
-121 -156 -244 -6 -46 -10 -53 -29 -53 -12 0 -32 11 -45 25 -18 19 -26 22 -37
14 -24 -21 -14 -44 32 -72 25 -15 52 -27 60 -27 17 0 21 -35 5 -45 -5 -3 -28
4 -51 15 -22 12 -44 19 -47 16 -19 -20 -78 210 -87 339 -2 22 -4 45 -5 50 -9
42 2 65 46 95 26 17 65 35 88 40 38 8 164 41 231 60 17 4 68 8 115 9 69 1 94
-3 131 -22z m412 -7 c35 -2 314 -63 322 -71 2 -3 -3 -34 -11 -69 -8 -35 -12
-76 -9 -90 8 -37 -12 -50 -76 -49 -66 1 -178 -19 -199 -36 -8 -7 -30 -16 -47
-20 -31 -6 -33 -5 -33 23 0 31 -58 154 -100 212 -31 44 -103 110 -119 110 -7
0 -10 4 -7 8 2 4 62 2 133 -5 70 -7 136 -13 146 -13z m1596 -32 c26 -68 32
-106 32 -181 0 -90 -2 -105 -25 -159 -13 -31 -30 -44 -95 -78 -102 -53 -214
-156 -209 -191 2 -16 11 -25 26 -27 12 -2 22 1 22 6 0 17 102 112 148 137 l43
24 -23 -30 c-13 -16 -33 -42 -46 -59 -49 -62 -233 -169 -332 -192 -60 -14
-249 -21 -264 -10 -6 5 -40 15 -75 21 -104 20 -215 87 -286 173 -22 26 -45 54
-52 61 -6 8 -25 45 -42 82 -36 79 -46 189 -27 296 11 58 14 64 38 67 14 2 42
-4 63 -12 20 -9 59 -18 86 -22 29 -4 53 -13 56 -21 3 -7 0 -34 -6 -60 -7 -26
-12 -91 -12 -145 1 -102 15 -152 57 -190 48 -43 187 -47 319 -9 164 48 266 81
310 101 11 5 37 16 57 25 21 10 51 33 68 51 36 42 40 103 11 164 l-19 39 38
15 c21 8 54 32 74 53 29 30 36 44 32 66 -7 34 20 38 33 5z m-99 -32 c-21 -27
-100 -60 -112 -48 -8 8 -6 13 8 17 10 3 35 14 54 24 45 24 67 27 50 7z m-154
-93 c9 -16 25 -40 36 -55 25 -37 33 -81 19 -107 -13 -23 -71 -63 -108 -75 -21
-7 -23 -4 -23 29 0 68 -39 115 -94 115 -32 0 -32 2 -3 45 13 21 40 42 67 54
64 27 86 26 106 -6z m-570 -33 c8 0 28 -14 46 -30 l31 -30 14 27 c13 27 16 28
84 27 49 -1 74 -6 80 -15 23 -37 -36 -186 -92 -233 -29 -25 -37 -27 -83 -21
-43 6 -58 14 -93 51 -83 88 -108 193 -53 221 14 7 31 11 38 8 8 -3 20 -5 28
-5z m-1864 -90 c5 -30 10 -79 13 -108 2 -28 11 -62 19 -74 9 -12 16 -35 16
-50 0 -15 5 -30 10 -33 6 -4 8 -11 5 -16 -4 -5 5 -31 19 -58 13 -27 22 -52 19
-54 -2 -3 14 -41 38 -85 l42 -80 -54 -55 -55 -55 -56 52 c-52 48 -107 125
-130 185 -5 14 -16 64 -23 111 -11 71 -11 99 0 160 16 89 18 95 70 182 45 77
53 75 67 -22z m701 13 c61 -42 99 -104 166 -270 24 -60 25 -63 10 -63 -5 0
-33 -18 -62 -39 l-51 -39 -17 39 c-10 21 -22 39 -26 40 -4 1 -26 3 -47 5 -57
5 -66 20 -23 40 54 26 64 65 39 156 -12 44 -68 135 -88 142 -8 3 -14 11 -14
17 0 18 70 1 113 -28z m-273 -203 c24 -24 36 -25 44 -5 6 16 62 21 83 7 8 -5
14 -35 15 -73 3 -60 -6 -94 -41 -159 -14 -26 -58 -23 -97 6 -57 44 -87 99 -88
163 -1 49 2 56 24 68 33 17 37 16 60 -7z m521 -177 c-10 -32 -47 -101 -67
-124 -8 -8 -14 -21 -14 -28 0 -27 -181 -188 -199 -177 -9 6 -1 51 17 98 31 78
137 194 215 235 54 29 57 28 48 -4z m-728 0 c41 -23 44 -27 51 -77 8 -47 45
-100 84 -120 35 -18 144 -36 215 -36 31 0 57 -2 57 -4 0 -2 -6 -22 -14 -44 -8
-22 -12 -49 -9 -61 4 -16 -2 -21 -39 -31 -23 -6 -50 -14 -58 -18 -33 -18 -176
-13 -251 8 -108 32 -109 32 -109 39 1 15 39 50 80 73 41 23 45 28 44 62 -1 25
-11 49 -33 76 -17 21 -31 48 -31 58 0 11 -7 25 -15 32 -14 12 -22 60 -9 60 3
0 20 -8 37 -17z m4658 -815 c6 -107 -14 -413 -32 -480 -5 -20 -8 -40 -7 -45 1
-4 -4 -47 -11 -96 -15 -100 -20 -314 -8 -369 l8 -37 -33 7 c-62 12 -301 7
-362 -7 -51 -13 -60 -19 -72 -48 -25 -59 -28 -53 111 -219 19 -22 47 -58 61
-80 29 -43 68 -86 128 -142 82 -77 105 -102 110 -120 4 -11 27 -29 51 -42 62
-32 66 -39 51 -80 -27 -72 -47 -111 -61 -116 -8 -3 -35 -31 -60 -62 -26 -31
-81 -83 -123 -115 -43 -33 -100 -79 -129 -103 -28 -24 -56 -44 -62 -44 -6 0
-26 -13 -44 -30 -19 -16 -39 -30 -45 -30 -6 0 -17 -9 -25 -21 -8 -11 -28 -28
-45 -37 -16 -9 -50 -30 -73 -47 -24 -16 -53 -35 -64 -41 -51 -30 -323 -163
-345 -169 -14 -4 -48 -18 -77 -31 -29 -13 -56 -23 -60 -22 -8 3 -65 -17 -95
-33 -18 -9 -62 -21 -163 -44 -113 -26 -171 -42 -193 -54 -11 -6 -30 -11 -41
-11 -20 0 -116 -28 -191 -55 -45 -16 -176 -39 -370 -65 -85 -12 -184 -26 -220
-32 -36 -5 -92 -11 -125 -13 -33 -2 -107 -6 -165 -9 -120 -7 -336 -8 -395 -2
-59 7 -211 51 -237 69 -63 44 -74 61 -127 190 -36 90 -72 268 -76 382 -8 188
-3 494 7 511 3 5 9 67 13 138 3 71 10 136 14 145 5 9 12 41 15 72 6 43 4 58
-8 68 -28 23 -50 -2 -64 -71 -7 -34 -18 -79 -23 -98 -6 -19 -9 -40 -8 -45 2
-6 0 -32 -4 -60 -8 -62 -19 -305 -19 -440 -1 -62 -5 -103 -12 -107 -17 -11
-251 -9 -281 2 -23 9 -25 13 -19 45 3 20 6 91 5 158 0 67 -1 167 -1 222 0 55
-4 120 -10 145 -8 39 -17 93 -34 200 -2 14 -7 62 -11 107 l-8 82 28 11 c15 6
36 8 47 4 21 -6 177 24 193 37 5 5 16 9 25 9 8 0 31 8 50 18 19 11 46 22 60
25 14 3 48 28 77 55 l52 49 12 -36 c14 -42 88 -161 101 -161 4 0 8 -6 8 -14 0
-7 22 -33 49 -58 26 -24 50 -49 52 -55 5 -13 133 -93 149 -93 7 0 27 -9 45
-20 33 -20 195 -60 275 -67 25 -2 54 -8 65 -14 22 -11 398 -7 450 4 17 4 63
11 102 16 40 5 79 13 85 18 7 4 40 11 73 15 33 4 80 12 105 17 120 25 169 30
273 31 146 1 245 -7 280 -23 22 -10 27 -17 22 -36 -4 -15 0 -30 11 -42 19 -21
23 -14 -45 -89 -34 -37 -42 -65 -29 -102 16 -48 138 -214 223 -304 17 -17 41
-46 55 -64 30 -38 102 -90 125 -90 16 0 108 60 130 85 6 6 38 32 71 57 59 45
129 117 182 186 l25 32 -56 83 c-31 45 -67 93 -79 107 -13 14 -63 72 -113 130
-103 120 -144 159 -165 160 -18 0 -37 -11 -114 -64 l-57 -39 -28 34 c-25 29
-31 32 -44 20 -14 -11 -21 -9 -46 11 -17 12 -33 32 -36 43 -3 11 -10 29 -14
40 -18 44 -31 92 -31 113 0 11 -5 24 -12 28 -8 5 -9 67 -5 229 4 122 9 229 11
236 19 55 29 439 14 522 -5 29 -4 37 8 37 9 0 25 5 37 12 12 6 29 13 37 13 8
1 38 9 65 18 48 16 199 42 315 54 30 3 60 10 67 15 7 5 21 7 31 4 11 -4 30 -2
43 3 13 4 74 12 134 16 61 4 144 10 185 13 41 4 168 8 283 10 l207 3 1 -23z
m209 -35 c36 -3 67 -9 68 -14 2 -5 13 -9 25 -9 55 0 282 -59 357 -93 97 -44
170 -82 170 -89 0 -4 16 -14 35 -22 41 -18 208 -183 231 -229 9 -18 26 -42 37
-55 17 -19 19 -28 11 -58 -15 -59 -44 -62 -98 -11 -62 60 -69 64 -116 77 -36
10 -45 9 -59 -5 -14 -14 -14 -18 0 -43 11 -19 21 -26 38 -24 17 3 36 -10 72
-47 68 -68 87 -137 50 -182 l-18 -23 -55 47 c-39 34 -64 47 -86 47 -50 0 -56
-64 -6 -76 33 -8 114 -105 114 -135 -1 -82 -37 -97 -150 -61 -41 13 -88 31
-105 40 -16 8 -46 18 -65 23 -19 4 -66 17 -105 29 -58 17 -99 21 -240 22 -133
1 -175 4 -193 16 -13 9 -44 15 -68 15 l-44 0 5 116 c5 96 18 216 40 371 11 70
17 147 20 260 3 69 5 127 5 129 0 2 15 0 33 -3 17 -4 61 -10 97 -13z m-1702
-318 c-1 -77 -5 -148 -10 -158 -5 -10 -9 -52 -9 -95 0 -42 -4 -93 -9 -113 -6
-20 -10 -67 -11 -105 0 -38 -1 -80 -2 -94 -7 -93 5 -272 22 -330 10 -36 20
-71 22 -79 4 -13 -86 -19 -301 -20 -89 -1 -118 -4 -137 -16 -12 -8 -49 -17
-82 -19 -33 -3 -69 -10 -80 -15 -11 -6 -38 -11 -60 -11 -22 0 -50 -4 -63 -9
-81 -31 -432 -44 -588 -21 -47 7 -92 12 -100 12 -8 0 -24 3 -35 8 -11 5 -47
16 -80 25 -115 32 -240 125 -338 250 -20 26 -37 53 -37 59 0 6 -9 19 -19 28
-23 19 -54 122 -46 148 4 12 22 24 47 31 34 9 48 8 77 -6 40 -18 162 -33 231
-30 127 7 216 17 254 29 47 16 174 52 226 66 76 19 360 103 405 120 11 4 45
15 75 25 50 16 95 35 235 100 28 12 66 29 85 36 19 7 49 23 65 35 17 12 39 24
51 28 11 3 31 21 44 39 13 17 34 40 47 50 31 25 73 116 73 160 0 19 6 37 13
40 27 9 35 -29 35 -168z m-3849 -17 c7 -24 30 -97 51 -162 22 -65 37 -123 34
-127 -3 -5 -15 -9 -28 -9 -12 0 -65 -9 -117 -20 -52 -12 -129 -29 -173 -38
-75 -16 -100 -32 -79 -53 6 -6 27 -6 59 1 27 6 83 18 124 25 41 8 108 21 149
30 83 18 101 15 101 -17 0 -13 7 -32 15 -42 13 -17 12 -22 -8 -42 -12 -12 -28
-29 -35 -38 -7 -9 -27 -17 -45 -17 -18 -1 -45 -3 -62 -5 -16 -2 -108 -6 -203
-8 -193 -4 -175 -12 -185 72 -3 28 0 35 19 43 29 10 53 64 47 105 -3 17 5 63
17 103 27 92 83 160 169 205 38 19 122 45 132 40 3 -2 11 -22 18 -46z m186 34
c135 -43 248 -138 277 -233 9 -30 29 -74 44 -97 23 -34 33 -42 54 -40 20 2 26
-2 28 -23 5 -41 -17 -51 -90 -42 -34 5 -107 8 -160 8 -92 0 -98 1 -108 23 -24
53 -20 54 113 51 119 -4 122 -4 125 18 3 18 -3 23 -34 29 -20 4 -84 4 -141 1
-102 -6 -103 -6 -103 16 0 13 -6 32 -14 43 -15 21 -55 131 -62 170 -2 12 -11
35 -19 50 -8 16 -15 33 -15 37 0 10 60 3 105 -11z m1719 -455 c-3 -9 -12 -18
-20 -21 -10 -4 -14 3 -14 23 0 15 3 30 6 34 11 10 34 -21 28 -36z m-1601 -44
c-7 -2 -19 -2 -25 0 -7 3 -2 5 12 5 14 0 19 -2 13 -5z m204 -103 c0 -54 -4
-70 -16 -74 -12 -3 -11 -6 7 -11 12 -4 22 -13 22 -21 0 -24 -31 -109 -46 -123
-24 -26 -27 -3 -4 43 31 66 26 78 -45 93 -33 7 -70 15 -82 18 -14 3 -25 17
-31 38 -6 17 -13 39 -17 48 -5 14 5 18 62 28 37 6 80 12 95 14 15 2 31 6 34
10 17 16 21 3 21 -63z m134 23 c24 -21 46 -41 47 -46 6 -12 120 -97 131 -97 5
0 16 -8 23 -18 17 -23 116 -90 168 -113 79 -35 109 -47 148 -59 46 -15 47 -16
57 -115 4 -33 10 -76 15 -95 5 -19 11 -73 15 -119 3 -46 9 -89 13 -95 5 -6 9
-105 10 -220 l2 -208 -23 6 c-28 9 -46 12 -127 25 -67 11 -154 35 -250 69 -30
10 -77 27 -105 37 -27 10 -61 26 -74 36 -13 10 -27 17 -31 14 -4 -3 -13 2 -20
10 -7 8 -18 15 -25 15 -19 0 -22 15 -13 89 10 95 19 213 23 316 1 50 6 98 10
107 4 9 2 33 -5 52 -6 18 -13 61 -15 93 -2 33 -8 86 -14 119 -14 78 -22 234
-12 234 4 0 27 -17 52 -37z m-441 -38 c7 -9 11 -17 8 -20 -2 -2 -12 4 -21 15
-9 11 -13 20 -8 20 5 0 14 -7 21 -15z m-221 -47 c-12 -43 -39 -70 -63 -64 -11
3 -40 -4 -64 -14 -25 -11 -50 -20 -56 -20 -6 0 -30 -17 -53 -38 l-41 -38 2 40
c2 23 -2 66 -8 97 l-12 56 55 2 c30 1 56 3 57 4 2 1 45 3 97 4 l95 2 -9 -31z
m140 9 c9 -11 3 -17 -29 -30 -41 -16 -48 -10 -30 24 12 22 43 25 59 6z m82
-44 c14 -16 31 -41 38 -58 7 -16 17 -37 21 -45 9 -19 3 -33 -43 -102 -31 -45
-47 -59 -83 -71 -24 -8 -47 -10 -50 -6 -10 16 5 26 48 33 32 5 39 9 28 16 -8
5 -25 10 -37 10 -13 0 -23 4 -23 9 0 15 23 19 48 9 29 -10 32 -8 67 42 26 37
27 44 17 78 -7 21 -23 49 -37 62 l-25 24 -43 -42 c-46 -45 -57 -50 -57 -28 0
14 86 96 100 96 3 0 17 -12 31 -27z m-281 -58 c0 -8 -3 -15 -8 -15 -4 0 -31
-21 -61 -47 -49 -43 -53 -49 -48 -82 2 -20 19 -57 36 -83 17 -25 31 -51 31
-57 0 -29 150 7 172 42 4 7 8 47 8 89 l0 77 -44 31 c-25 16 -52 30 -60 30 -9
0 -16 7 -16 15 0 25 27 17 91 -27 l60 -43 -5 -85 c-2 -47 -8 -93 -11 -102 -7
-17 -100 -58 -133 -58 -11 0 -23 -13 -30 -33 -22 -60 -33 -69 -80 -61 -50 8
-57 27 -7 23 19 -2 38 1 43 6 14 17 33 67 22 60 -5 -3 -21 14 -36 37 -14 24
-33 54 -41 67 -8 13 -18 19 -22 14 -3 -6 -16 -15 -28 -22 -19 -9 -23 -9 -23 2
0 7 11 19 24 27 20 10 24 19 21 53 -3 37 1 44 39 78 93 83 106 91 106 64z
m513 -100 c44 -75 45 -87 13 -109 -31 -19 -49 0 -20 21 18 13 18 14 0 41 -9
15 -23 39 -29 55 -6 15 -17 27 -24 27 -25 0 -10 26 17 29 3 0 22 -28 43 -64z
m-192 -124 l21 -49 34 14 c29 12 34 12 34 0 0 -7 -15 -20 -32 -27 -18 -7 -62
-42 -97 -76 -35 -35 -71 -63 -81 -63 -21 0 -130 99 -109 100 8 0 32 -16 53
-35 21 -19 46 -35 55 -35 9 1 40 25 70 54 l53 53 -16 31 c-15 29 -22 82 -11
82 2 0 14 -22 26 -49z m4065 -99 c12 -9 59 -60 104 -112 46 -52 94 -106 107
-119 12 -13 23 -27 23 -32 0 -4 23 -35 50 -68 56 -67 61 -88 28 -118 -13 -11
-37 -35 -54 -54 -17 -19 -52 -52 -79 -74 -26 -22 -64 -54 -84 -71 -62 -52 -93
-74 -107 -74 -27 0 -216 207 -284 310 -8 12 -22 30 -31 39 -9 9 -23 30 -32 47
-14 27 -14 33 -1 61 9 17 28 43 44 58 26 25 30 26 63 15 71 -26 116 10 98 77
-8 28 -7 39 2 45 6 4 23 15 36 25 47 36 86 62 91 62 3 0 15 -7 26 -17z m-218
-95 c15 -34 16 -57 2 -57 -6 0 -28 13 -49 28 l-40 29 26 26 c29 28 39 24 61
-26z m2209 -431 c63 -13 99 -35 134 -80 19 -24 27 -26 96 -26 103 0 149 -16
199 -67 72 -76 81 -153 26 -229 -16 -22 -31 -47 -35 -57 -8 -21 8 -60 44 -107
14 -19 33 -56 42 -83 14 -41 14 -50 1 -75 -7 -15 -14 -35 -14 -45 0 -26 -44
-108 -74 -138 -18 -18 -42 -28 -75 -33 -86 -11 -113 -25 -110 -55 3 -36 -9
-60 -80 -169 -41 -63 -78 -82 -163 -82 l-60 0 6 33 c4 17 9 59 11 92 2 33 7
94 10 135 8 92 -15 385 -34 440 -5 14 -16 52 -25 85 -10 33 -26 83 -36 110
-11 28 -20 58 -20 68 0 10 -7 20 -15 23 -8 4 -15 14 -15 23 0 9 -22 42 -50 73
-54 61 -59 77 -32 100 25 23 134 64 202 76 3 1 33 -5 67 -12z m-185 -1783 c14
-16 44 -45 66 -66 67 -60 77 -82 74 -151 -6 -101 -74 -359 -109 -411 -7 -11
-13 -27 -13 -35 0 -9 -5 -21 -12 -28 -6 -6 -13 -20 -15 -31 -1 -11 -12 -35
-23 -53 -11 -18 -32 -55 -46 -83 -15 -27 -46 -82 -70 -122 -24 -39 -44 -79
-44 -88 0 -8 -7 -18 -15 -21 -8 -4 -15 -13 -15 -21 0 -8 -12 -27 -28 -41 -15
-15 -36 -40 -46 -57 -28 -43 -115 -146 -141 -167 -23 -18 -23 -18 -46 29 -12
25 -30 54 -38 63 -9 9 -36 38 -61 66 -51 55 -146 124 -173 124 -10 0 -28 7
-40 14 -41 28 -139 46 -242 46 -98 0 -209 -15 -230 -31 -14 -10 -85 -23 -85
-15 0 4 7 23 15 43 8 19 15 43 15 52 1 34 34 58 90 65 75 10 86 12 154 30 53
15 61 15 76 1 9 -8 24 -15 33 -15 9 0 19 -4 22 -10 3 -5 20 -10 36 -10 17 0
78 -11 137 -24 204 -45 315 -37 375 27 25 27 28 37 24 74 -4 42 -39 92 -63 93
-6 0 -17 7 -24 15 -7 8 -30 18 -52 21 -21 4 -41 11 -44 15 -3 5 -22 9 -42 9
-36 0 -36 0 -17 19 18 18 27 19 105 10 112 -14 143 -12 219 8 69 19 101 52
101 104 0 52 -70 109 -135 109 -34 0 -32 13 13 57 21 21 52 56 68 78 15 22 45
59 66 83 21 23 41 55 44 72 4 16 13 35 20 41 8 6 14 18 14 27 0 31 43 112 60
112 9 0 28 -12 42 -27z m203 -459 c-3 -89 -11 -148 -27 -198 -12 -39 -21 -75
-20 -79 1 -4 -10 -33 -24 -65 -96 -208 -98 -212 -182 -324 -23 -31 -42 -61
-42 -66 0 -7 -33 -46 -113 -132 -45 -48 -213 -206 -276 -260 -78 -67 -225
-153 -251 -147 -10 3 -7 7 10 14 14 6 32 18 39 27 7 9 19 16 27 16 7 0 19 8
26 18 7 9 26 26 42 36 26 16 101 84 212 191 23 22 54 59 69 83 15 23 31 42 34
42 4 0 15 15 25 34 10 19 25 37 32 40 8 3 14 10 14 17 0 6 15 29 33 52 19 23
42 58 52 77 26 51 30 57 82 145 26 44 50 85 52 90 2 6 16 37 31 70 15 33 35
78 44 100 28 63 106 303 106 325 0 11 2 20 5 20 3 0 3 -57 0 -126z m-4503
-102 c52 -113 68 -151 68 -164 0 -8 4 -18 9 -23 18 -18 73 -160 72 -184 -1
-32 -5 -35 -35 -27 -28 7 -96 62 -96 77 0 5 -20 40 -44 77 -24 37 -54 88 -66
114 -12 26 -28 52 -36 59 -8 6 -14 19 -14 28 0 10 -7 26 -15 37 -28 36 -19 52
33 59 26 4 52 8 57 9 25 7 43 -9 67 -62z m3958 43 c69 -9 93 -42 48 -66 -23
-13 -194 -16 -206 -5 -3 4 12 24 33 46 26 27 45 38 59 35 12 -2 41 -6 66 -10z
m-3798 -14 c3 -3 13 -27 22 -53 8 -25 33 -75 55 -110 22 -34 56 -93 76 -129
70 -128 159 -183 229 -140 60 37 69 54 69 128 -1 70 -15 115 -58 183 -27 42
-19 54 25 38 15 -6 134 -7 290 -3 l266 6 31 -43 c54 -75 75 -146 57 -192 -3
-9 -10 -16 -15 -16 -5 0 -39 -25 -75 -56 -37 -31 -85 -64 -108 -75 -22 -10
-54 -27 -71 -37 -84 -51 -275 -142 -298 -142 -9 0 -19 -4 -22 -10 -3 -5 -16
-10 -28 -10 -12 0 -34 -6 -49 -14 -23 -12 -44 -19 -103 -32 -5 -1 -30 -7 -55
-14 -25 -6 -61 -13 -80 -15 -19 -2 -67 -8 -105 -13 -39 -5 -120 -10 -181 -11
l-110 -2 -1 117 c-2 128 -25 244 -66 329 -14 28 -27 60 -31 72 -4 11 -13 24
-21 26 -7 3 -21 21 -29 39 -16 33 -54 63 -131 105 -26 14 -35 23 -25 26 8 2
31 10 50 16 79 29 75 30 116 -55 20 -44 43 -87 51 -96 9 -9 25 -36 38 -60 91
-176 177 -268 249 -268 110 0 137 102 64 241 -20 36 -41 83 -48 105 -7 21 -16
43 -21 49 -5 5 -9 18 -9 30 0 11 -6 29 -14 40 -7 11 -16 30 -20 42 -6 20 -4
21 36 16 24 -3 46 -8 50 -12z m200 -52 c68 -13 91 -34 135 -121 42 -81 52
-151 28 -178 -21 -23 -65 -27 -65 -6 0 8 -9 17 -20 21 -19 6 -34 27 -66 95 -9
19 -22 42 -29 50 -17 19 -62 101 -75 136 -10 25 -9 26 12 20 13 -4 49 -11 80
-17z m-747 -89 c68 -33 162 -146 184 -223 7 -23 17 -55 23 -72 6 -16 15 -94
20 -173 11 -162 7 -178 -46 -168 -17 3 -58 6 -91 7 -33 1 -64 5 -70 9 -5 4
-23 10 -40 13 -87 16 -93 19 -192 64 -61 28 -156 87 -192 119 -29 25 -32 33
-28 69 7 58 22 109 46 155 12 22 21 47 21 56 0 17 116 134 134 134 6 1 29 10
51 21 49 24 116 20 180 -11z m4045 -85 c66 -9 175 -58 190 -85 7 -13 4 -22
-13 -37 -17 -15 -39 -20 -105 -22 -46 -1 -89 2 -95 8 -11 8 -92 27 -201 46
l-40 7 85 48 c74 43 89 48 124 43 22 -4 47 -7 55 -8z m-2430 -202 c0 -7 -57
-121 -85 -171 -24 -45 -90 -103 -137 -124 -27 -11 -48 -24 -48 -28 0 -4 -12
-11 -27 -15 -16 -3 -60 -22 -100 -41 -40 -19 -79 -34 -86 -34 -8 0 -20 -6 -26
-14 -6 -8 -24 -16 -39 -20 -93 -19 -141 -32 -154 -43 -8 -7 -41 -15 -74 -19
-32 -3 -73 -12 -91 -19 -18 -8 -85 -17 -150 -20 -65 -4 -158 -9 -208 -11 -121
-7 -316 -7 -335 -1 -8 3 -37 8 -64 12 -27 4 -58 10 -70 15 -11 4 -48 15 -81
25 -85 25 -123 43 -182 87 -60 44 -73 63 -90 133 -18 73 -17 82 5 62 10 -10
26 -17 35 -17 9 0 17 -5 17 -10 0 -10 101 -60 174 -86 22 -8 44 -18 50 -23 10
-7 70 -25 126 -37 81 -17 191 -24 305 -19 72 4 169 8 217 10 47 1 91 6 98 10
6 4 41 9 76 11 36 2 70 7 77 11 7 4 31 8 54 9 24 1 49 6 55 11 7 6 28 13 46
17 19 3 48 12 65 20 18 9 68 27 112 42 44 15 87 33 96 40 8 8 22 14 29 14 15
0 187 85 210 104 8 7 35 23 59 35 25 13 63 38 85 57 38 33 56 41 56 27z m2220
-178 c25 -13 62 -28 82 -34 20 -7 42 -19 48 -27 7 -7 17 -14 23 -14 18 0 126
-123 153 -174 30 -57 26 -86 -13 -112 -15 -9 -42 -32 -59 -51 -17 -18 -38 -33
-45 -33 -8 0 -20 -9 -27 -20 -6 -11 -33 -31 -59 -45 -190 -103 -196 -105 -279
-100 -113 6 -247 53 -305 107 -43 40 -60 88 -61 169 -1 78 10 233 18 260 2 9
30 30 62 47 113 60 364 75 462 27z"/>
<path d="M6319 6816 c-2 -2 -27 -7 -55 -10 -28 -3 -57 -8 -65 -10 -8 -3 -39
-7 -69 -10 -95 -9 -249 -65 -395 -144 -40 -22 -96 -82 -93 -100 5 -28 36 -25
68 7 17 16 42 36 58 44 117 62 149 77 164 77 9 0 19 4 22 9 3 5 30 14 58 21
29 6 60 14 68 17 8 3 26 7 39 9 14 2 55 8 92 13 108 17 188 24 293 25 110 1
134 15 72 41 -32 14 -245 23 -257 11z"/>
<path d="M5700 4973 c-120 -18 -362 -91 -307 -93 18 0 25 -30 7 -30 -5 0 -10
5 -10 12 0 6 -3 8 -7 5 -3 -4 2 -16 11 -26 10 -11 16 -28 14 -38 -4 -23 -36
-29 -44 -8 -9 21 5 33 16 15 7 -11 10 -11 10 -2 0 7 -7 15 -15 18 -8 4 -15 15
-15 25 0 18 -2 19 -29 5 -36 -19 -81 -72 -81 -96 0 -28 45 -58 108 -71 97 -20
279 4 434 56 79 27 88 33 70 44 -8 5 -12 23 -10 47 3 34 6 39 27 39 13 0 26
-6 29 -14 3 -9 -1 -11 -17 -6 -18 5 -21 2 -21 -24 0 -17 5 -31 11 -31 6 0 8 9
4 20 -5 14 -2 20 9 20 9 0 16 -9 16 -20 0 -29 11 -25 58 18 67 62 50 110 -47
131 -49 10 -167 13 -221 4z m-220 -112 c0 -10 3 -33 6 -50 9 -42 -13 -41 -25
2 -9 31 -9 31 -10 5 -1 -36 -21 -47 -21 -11 0 48 11 73 31 73 12 0 19 -7 19
-19z m63 -3 l4 -23 8 23 c14 43 35 26 35 -29 0 -31 -4 -48 -10 -44 -5 3 -10
14 -11 23 -1 10 -4 7 -9 -8 -6 -22 -8 -23 -15 -7 -7 17 -8 17 -21 0 -12 -16
-13 -12 -14 35 0 39 4 52 14 52 8 0 17 -10 19 -22z m125 3 c3 -9 -2 -11 -19
-7 l-24 7 23 -17 c23 -17 29 -48 12 -59 -16 -10 -50 5 -50 21 0 17 12 18 28 2
7 -7 12 -8 12 -4 0 4 -10 16 -22 25 -27 22 -18 54 14 49 12 -2 23 -9 26 -17z
m44 -23 l1 -43 4 43 c6 58 25 54 21 -5 -3 -40 -6 -48 -23 -48 -17 0 -20 8 -23
48 -2 28 1 47 7 47 6 0 12 -19 13 -42z m89 12 l7 -25 1 28 c2 46 21 30 21 -18
0 -55 -24 -63 -39 -12 l-9 32 -1 -32 c-2 -51 -21 -39 -21 13 0 37 3 45 17 42
9 -2 20 -14 24 -28z"/>
<path d="M6856 4327 c-27 -28 -67 -65 -90 -83 -23 -17 -47 -43 -55 -57 -12
-23 -11 -30 12 -69 14 -24 59 -78 99 -122 69 -73 76 -78 105 -72 19 5 64 39
122 93 107 101 110 114 54 189 -60 79 -158 174 -179 173 -10 0 -41 -23 -68
-52z m126 -49 c16 -14 28 -31 28 -37 0 -5 6 -14 13 -18 7 -4 27 -26 45 -48
l32 -39 -21 -22 c-24 -25 -59 -21 -59 7 0 11 -9 28 -20 39 -14 14 -18 27 -14
50 4 19 1 38 -10 55 -18 28 -53 33 -62 10 -4 -10 -13 -13 -25 -10 -12 4 -19 2
-19 -6 0 -7 -3 -9 -7 -6 -4 4 8 23 27 42 37 38 36 38 92 -17z m-25 -80 c-5
-34 -2 -41 14 -45 26 -7 25 -47 -3 -73 -23 -21 -31 -23 -65 -14 -26 7 -35 37
-18 61 11 15 11 22 -1 38 -16 22 -19 65 -4 65 11 0 14 -7 24 -52 9 -41 27 -34
25 10 -1 20 1 48 6 61 7 22 8 23 17 6 6 -9 8 -35 5 -57z m-109 20 c0 -18 1
-56 2 -85 2 -68 24 -97 73 -97 21 0 39 -6 41 -13 6 -16 -28 -53 -47 -53 -15 0
-147 152 -159 182 -4 10 -2 22 5 27 7 6 28 24 47 40 19 17 35 31 36 31 0 0 1
-15 2 -32z m172 -168 c-27 -20 -36 -19 -27 5 4 8 17 15 29 15 l23 0 -25 -20z"/>
<path d="M6905 4100 c-3 -5 -1 -10 4 -10 6 0 11 5 11 10 0 6 -2 10 -4 10 -3 0
-8 -4 -11 -10z"/>
</g>
</svg>
